<?xml version="1.0" standalone="no"?>
<!DOCTYPE svg PUBLIC "-//W3C//DTD SVG 20010904//EN"
 "http://www.w3.org/TR/2001/REC-SVG-20010904/DTD/svg10.dtd">
<svg version="1.0" xmlns="http://www.w3.org/2000/svg"
 width="700.000000pt" height="700.000000pt" viewBox="0 0 700.000000 700.000000"
 preserveAspectRatio="xMidYMid meet">
<metadata>
Created by potrace 1.14, written by Peter Selinger 2001-2017
</metadata>
<g transform="translate(0.000000,700.000000) scale(0.100000,-0.100000)"
fill="#000000" stroke="none">
<path d="M2512 6694 c-359 -44 -650 -181 -874 -410 -124 -127 -214 -258 -292
-426 -49 -103 -107 -272 -126 -362 -11 -55 -12 -56 -46 -56 -36 0 -93 -25
-131 -57 -23 -19 -34 -28 -103 -85 -151 -122 -260 -126 -590 -18 -222 72 -274
67 -325 -30 -21 -40 -28 -147 -14 -230 21 -134 98 -315 195 -461 60 -90 208
-241 288 -293 217 -143 458 -211 741 -209 86 0 193 9 218 18 19 7 28 -3 108
-126 103 -155 122 -195 116 -235 -5 -31 -55 -117 -95 -166 -11 -13 -39 -45
-62 -73 -23 -27 -52 -61 -64 -75 -154 -178 -321 -396 -403 -525 -115 -183
-233 -449 -259 -584 -1 -7 -7 -34 -13 -60 -11 -47 -16 -78 -26 -147 -7 -46 -7
-313 -1 -364 68 -548 326 -933 796 -1187 160 -87 417 -172 600 -199 19 -3 60
-9 90 -14 30 -5 89 -13 130 -17 93 -10 2200 -11 2290 -1 850 91 1672 803 2050
1778 29 74 56 144 61 155 10 24 78 242 83 270 3 11 16 65 30 120 24 97 70 338
80 420 35 292 39 340 24 328 -76 -60 -154 -114 -216 -149 -75 -43 -214 -99
-275 -110 -167 -30 -298 -25 -492 22 -105 25 -215 60 -535 169 -107 37 -245
82 -306 101 -215 65 -487 127 -659 150 -27 3 -58 8 -68 10 -10 2 -48 6 -85 9
-37 3 -74 8 -82 10 -58 15 -617 25 -697 12 -18 -3 -33 -2 -33 1 0 4 28 24 63
44 70 42 240 163 313 223 171 140 337 349 414 520 103 227 139 416 135 695 -2
102 -6 203 -9 225 -75 469 -260 809 -582 1065 -170 135 -499 274 -724 305 -57
7 -113 15 -150 21 -76 11 -390 10 -488 -2z m-186 -1074 c61 -30 114 -84 145
-147 36 -73 34 -179 -5 -255 -53 -108 -143 -163 -266 -163 -91 0 -151 24 -211
86 -59 61 -82 118 -82 209 0 125 56 214 170 268 80 38 173 38 249 2z m-1121
-389 c6 -19 10 -47 19 -143 16 -158 67 -256 295 -573 114 -158 121 -170 104
-183 -171 -132 -665 -116 -932 29 -215 118 -381 320 -471 575 -29 84 -51 204
-36 204 4 0 60 -18 124 -39 396 -133 541 -116 795 93 74 60 92 67 102 37z
m2250 -2465 c77 -4 167 -8 200 -11 86 -6 184 -15 225 -20 19 -2 62 -7 95 -10
170 -17 472 -58 735 -102 85 -14 166 -27 180 -29 70 -10 393 -74 397 -78 5 -5
15 1 -342 -202 -143 -81 -282 -160 -310 -176 -27 -16 -69 -38 -92 -50 -24 -12
-43 -25 -43 -29 0 -3 106 -60 236 -126 130 -66 236 -124 236 -128 0 -9 -32
-28 -152 -93 -36 -19 -87 -47 -115 -62 -27 -15 -81 -44 -120 -65 -76 -40 -143
-77 -230 -126 l-55 -31 219 -151 c121 -84 217 -155 213 -158 -7 -7 -131 -42
-183 -53 -21 -4 -139 -31 -180 -41 -9 -2 -32 -6 -50 -9 -19 -3 -74 -12 -124
-20 -116 -19 -149 -24 -221 -31 -32 -4 -70 -9 -84 -11 -45 -10 -513 -12 -590
-3 -224 25 -390 63 -551 127 -349 139 -604 415 -686 743 -3 13 -7 78 -9 145
-4 131 9 199 60 309 49 107 144 223 241 293 27 20 52 39 55 42 36 38 211 108
310 124 19 3 46 8 60 10 74 14 107 17 240 22 80 4 146 8 148 9 1 1 35 1 75 -1
39 -2 135 -5 212 -8z"/>
</g>
</svg>
